HIERARCHY
ROOT Hips
{
	OFFSET 0.000000 97.167313 0.000000
	CHANNELS 6 Xposition Yposition Zposition Xrotation Yrotation Zrotation
	JOINT Spine
	{
		OFFSET 0.000000 13.784798 0.064400
		CHANNELS 3 Xrotation Yrotation Zrotation
		JOINT Spine1
		{
			OFFSET 0.000000 12.037903 0.404700
			CHANNELS 3 Xrotation Yrotation Zrotation
			JOINT Spine2
			{
				OFFSET 0.000000 17.795601 0.420200
				CHANNELS 3 Xrotation Yrotation Zrotation
				JOINT Neck
				{
					OFFSET 0.000000 39.131302 11.954600
					CHANNELS 3 Xrotation Yrotation Zrotation
					JOINT Head
					{
						OFFSET 0.000000 14.456192 15.627699
						CHANNELS 3 Xrotation Yrotation Zrotation
						JOINT HeadTop_End
						{
							OFFSET 0.000000 15.703506 7.603401
							CHANNELS 3 Xrotation Yrotation Zrotation
							End Site
							{
								OFFSET 0.000000 17.447403 0.000000
							}
						}
					}
				}
				JOINT LeftShoulder
				{
					OFFSET 17.399500 24.608795 1.168800
					CHANNELS 3 Xrotation Yrotation Zrotation
					JOINT LeftArm
					{
						OFFSET 18.980635 5.765305 1.818600
						CHANNELS 3 Xrotation Yrotation Zrotation
						JOINT LeftForeArm
						{
							OFFSET 49.290169 0.000000 0.000000
							CHANNELS 3 Xrotation Yrotation Zrotation
							JOINT LeftHand
							{
								OFFSET 31.562012 0.000000 0.000000
								CHANNELS 3 Xrotation Yrotation Zrotation
								JOINT LeftHandThumb1
								{
									OFFSET 6.133995 -4.388519 7.076070
									CHANNELS 3 Xrotation Yrotation Zrotation
									JOINT LeftHandThumb2
									{
										OFFSET 6.037666 -3.485840 3.485847
										CHANNELS 3 Xrotation Yrotation Zrotation
										JOINT LeftHandThumb3
										{
											OFFSET 6.496506 -3.750763 3.750761
											CHANNELS 3 Xrotation Yrotation Zrotation
											JOINT LeftHandThumb4
											{
												OFFSET 5.616882 -3.242905 3.242910
												CHANNELS 3 Xrotation Yrotation Zrotation
												End Site
												{
													OFFSET -1.254608 7.132141 0.375429
												}
											}
										}
									}
								}
								JOINT LeftHandPinky1
								{
									OFFSET 18.920792 -0.453171 -11.426712
									CHANNELS 3 Xrotation Yrotation Zrotation
									JOINT LeftHandPinky2
									{
										OFFSET 4.919586 0.000000 0.000000
										CHANNELS 3 Xrotation Yrotation Zrotation
										JOINT LeftHandPinky3
										{
											OFFSET 5.233047 0.000000 0.000000
											CHANNELS 3 Xrotation Yrotation Zrotation
											JOINT LeftHandPinky4
											{
												OFFSET 5.571716 0.000000 0.000000
												CHANNELS 3 Xrotation Yrotation Zrotation
												End Site
												{
													OFFSET -3.459808 4.342407 -0.466164
												}
											}
										}
									}
								}
								JOINT LeftHandRing1
								{
									OFFSET 22.726120 -0.094986 -6.500475
									CHANNELS 3 Xrotation Yrotation Zrotation
									JOINT LeftHandRing2
									{
										OFFSET 6.408615 0.000000 0.000000
										CHANNELS 3 Xrotation Yrotation Zrotation
										JOINT LeftHandRing3
										{
											OFFSET 6.150223 0.000000 0.000000
											CHANNELS 3 Xrotation Yrotation Zrotation
											JOINT LeftHandRing4
											{
												OFFSET 6.145386 0.000000 0.000000
												CHANNELS 3 Xrotation Yrotation Zrotation
												End Site
												{
													OFFSET -3.671402 4.923981 -0.202372
												}
											}
										}
									}
								}
								JOINT LeftHandMiddle1
								{
									OFFSET 23.373947 0.000000 0.000001
									CHANNELS 3 Xrotation Yrotation Zrotation
									JOINT LeftHandMiddle2
									{
										OFFSET 6.996567 0.000000 0.000000
										CHANNELS 3 Xrotation Yrotation Zrotation
										JOINT LeftHandMiddle3
										{
											OFFSET 7.015945 0.000000 0.000000
											CHANNELS 3 Xrotation Yrotation Zrotation
											JOINT LeftHandMiddle4
											{
												OFFSET 7.721573 0.000000 0.000000
												CHANNELS 3 Xrotation Yrotation Zrotation
												End Site
												{
													OFFSET -4.651108 6.158463 0.251582
												}
											}
										}
									}
								}
								JOINT LeftHandIndex1
								{
									OFFSET 21.310577 -0.490082 6.209344
									CHANNELS 3 Xrotation Yrotation Zrotation
									JOINT LeftHandIndex2
									{
										OFFSET 7.536453 0.000000 0.000000
										CHANNELS 3 Xrotation Yrotation Zrotation
										JOINT LeftHandIndex3
										{
											OFFSET 7.512344 0.000000 0.000000
											CHANNELS 3 Xrotation Yrotation Zrotation
											JOINT LeftHandIndex4
											{
												OFFSET 10.212402 0.000000 0.000001
												CHANNELS 3 Xrotation Yrotation Zrotation
												End Site
												{
													OFFSET -5.180801 8.690506 1.388433
												}
											}
										}
									}
								}
							}
						}
					}
				}
				JOINT RightShoulder
				{
					OFFSET -17.399500 24.608795 1.168800
					CHANNELS 3 Xrotation Yrotation Zrotation
					JOINT RightArm
					{
						OFFSET -18.980635 5.765305 1.818600
						CHANNELS 3 Xrotation Yrotation Zrotation
						JOINT RightForeArm
						{
							OFFSET -49.290169 0.000000 0.000000
							CHANNELS 3 Xrotation Yrotation Zrotation
							JOINT RightHand
							{
								OFFSET -31.562012 0.000000 0.000000
								CHANNELS 3 Xrotation Yrotation Zrotation
								JOINT RightHandThumb1
								{
									OFFSET -6.133995 -4.388519 7.076070
									CHANNELS 3 Xrotation Yrotation Zrotation
									JOINT RightHandThumb2
									{
										OFFSET -6.037666 -3.485840 3.485847
										CHANNELS 3 Xrotation Yrotation Zrotation
										JOINT RightHandThumb3
										{
											OFFSET -6.496506 -3.750763 3.750761
											CHANNELS 3 Xrotation Yrotation Zrotation
											JOINT RightHandThumb4
											{
												OFFSET -5.616882 -3.242905 3.242910
												CHANNELS 3 Xrotation Yrotation Zrotation
												End Site
												{
													OFFSET 1.254608 7.132141 0.375429
												}
											}
										}
									}
								}
								JOINT RightHandIndex1
								{
									OFFSET -21.310577 -0.490082 6.209344
									CHANNELS 3 Xrotation Yrotation Zrotation
									JOINT RightHandIndex2
									{
										OFFSET -7.536453 0.000000 0.000000
										CHANNELS 3 Xrotation Yrotation Zrotation
										JOINT RightHandIndex3
										{
											OFFSET -7.512344 0.000000 0.000000
											CHANNELS 3 Xrotation Yrotation Zrotation
											JOINT RightHandIndex4
											{
												OFFSET -10.212402 0.000000 0.000001
												CHANNELS 3 Xrotation Yrotation Zrotation
												End Site
												{
													OFFSET 5.180801 8.690506 1.388433
												}
											}
										}
									}
								}
								JOINT RightHandMiddle1
								{
									OFFSET -23.373947 0.000000 0.000001
									CHANNELS 3 Xrotation Yrotation Zrotation
									JOINT RightHandMiddle2
									{
										OFFSET -6.996567 0.000000 0.000000
										CHANNELS 3 Xrotation Yrotation Zrotation
										JOINT RightHandMiddle3
										{
											OFFSET -7.015945 0.000000 0.000000
											CHANNELS 3 Xrotation Yrotation Zrotation
											JOINT RightHandMiddle4
											{
												OFFSET -7.721573 0.000000 0.000000
												CHANNELS 3 Xrotation Yrotation Zrotation
												End Site
												{
													OFFSET 4.651108 6.158463 0.251582
												}
											}
										}
									}
								}
								JOINT RightHandRing1
								{
									OFFSET -22.726120 -0.094986 -6.500475
									CHANNELS 3 Xrotation Yrotation Zrotation
									JOINT RightHandRing2
									{
										OFFSET -6.408615 0.000000 0.000000
										CHANNELS 3 Xrotation Yrotation Zrotation
										JOINT RightHandRing3
										{
											OFFSET -6.150223 0.000000 0.000000
											CHANNELS 3 Xrotation Yrotation Zrotation
											JOINT RightHandRing4
											{
												OFFSET -6.145386 0.000000 0.000000
												CHANNELS 3 Xrotation Yrotation Zrotation
												End Site
												{
													OFFSET 3.671402 4.923981 -0.202372
												}
											}
										}
									}
								}
								JOINT RightHandPinky1
								{
									OFFSET -18.920792 -0.453171 -11.426712
									CHANNELS 3 Xrotation Yrotation Zrotation
									JOINT RightHandPinky2
									{
										OFFSET -4.919586 0.000000 0.000000
										CHANNELS 3 Xrotation Yrotation Zrotation
										JOINT RightHandPinky3
										{
											OFFSET -5.233047 0.000000 0.000000
											CHANNELS 3 Xrotation Yrotation Zrotation
											JOINT RightHandPinky4
											{
												OFFSET -5.571716 0.000000 0.000000
												CHANNELS 3 Xrotation Yrotation Zrotation
												End Site
												{
													OFFSET 3.459808 4.342407 -0.466164
												}
											}
										}
									}
								}
							}
						}
					}
				}
			}
		}
	}
	JOINT LeftUpLeg
	{
		OFFSET 19.899099 -7.885101 -3.429500
		CHANNELS 3 Xrotation Yrotation Zrotation
		JOINT LeftLeg
		{
			OFFSET 1.745560 -36.997807 10.304700
			CHANNELS 3 Xrotation Yrotation Zrotation
			JOINT LeftFoot
			{
				OFFSET -1.745558 -29.803308 -13.615400
				CHANNELS 3 Xrotation Yrotation Zrotation
				JOINT LeftToeBase
				{
					OFFSET 1.181900 -18.539904 15.226099
					CHANNELS 3 Xrotation Yrotation Zrotation
					JOINT LeftToe_End
					{
						OFFSET -0.863701 1.402801 16.534700
						CHANNELS 3 Xrotation Yrotation Zrotation
						End Site
						{
							OFFSET 0.000000 16.616566 0.000000
						}
					}
				}
			}
		}
	}
	JOINT RightUpLeg
	{
		OFFSET -19.899099 -7.885101 -3.429500
		CHANNELS 3 Xrotation Yrotation Zrotation
		JOINT RightLeg
		{
			OFFSET -1.745560 -36.997807 10.304700
			CHANNELS 3 Xrotation Yrotation Zrotation
			JOINT RightFoot
			{
				OFFSET 1.745558 -29.803308 -13.615400
				CHANNELS 3 Xrotation Yrotation Zrotation
				JOINT RightToeBase
				{
					OFFSET -1.181900 -18.539904 15.226099
					CHANNELS 3 Xrotation Yrotation Zrotation
					JOINT RightToe_End
					{
						OFFSET 0.863701 1.402801 16.534700
						CHANNELS 3 Xrotation Yrotation Zrotation
						End Site
						{
							OFFSET 0.000000 16.616566 0.000000
						}
					}
				}
			}
		}
	}
}
MOTION
Frames: 4
Frame Time: 0.033333
-13.506417 76.389023 -4.262244 3.300291 9.039168 5.259674 20.511599 -1.295874 -0.142724 2.567052 -0.267756 -1.088951 2.568787 -0.218168 -1.096680 6.485098 -0.644797 -3.102431 -17.397721 -1.083069 -9.682374 0.000000 0.000000 0.000001 -4.234415 -18.933197 -14.163937 -2.646490 21.425888 -14.607481 -9.552174 -125.177669 -4.355232 -6.341348 6.865189 9.768515 5.181368 9.605717 -9.188464 -5.436251 50.372379 27.367110 -9.303378 54.579420 26.577472 0.000000 -0.000000 -0.000003 18.916182 15.840563 -67.975955 5.142100 5.808104 -83.028708 1.270349 3.644229 -38.425814 -0.000000 0.000002 -0.000002 14.648276 12.410874 -67.120979 5.691292 5.848889 -88.432358 1.356674 3.750227 -39.764419 -0.000001 0.000001 0.000003 2.526612 7.191097 -62.784506 5.101791 5.803048 -82.629989 1.082313 3.394202 -35.363178 0.000001 -0.000001 0.000006 -12.657475 -1.025087 -62.250488 5.037872 5.794471 -81.997343 1.478087 3.891177 -41.586351 -0.000001 0.000000 -0.000002 3.014286 20.374051 -4.575669 24.590670 18.291397 4.086524 -0.000755 85.880517 0.000781 26.204632 26.582128 -33.550313 -7.081680 -5.146912 11.733518 -8.229154 -59.230875 -32.056069 -15.657768 -50.476495 -31.231737 0.000001 -0.000001 -0.000001 -12.032880 1.135837 63.111194 4.168091 -4.631479 83.965346 1.600577 -3.515412 48.948988 -0.000000 -0.000001 -0.000003 1.916821 -6.091638 63.487920 3.752889 -4.568723 78.791662 0.655462 -2.384281 30.738949 0.000001 -0.000000 -0.000001 10.953477 -10.094545 66.404684 4.265430 -4.640685 85.169379 1.075986 -2.979241 39.708162 0.000000 -0.000002 -0.000003 11.228474 -10.524075 64.676065 3.621333 -4.540760 77.135259 1.794629 -3.675096 52.042654 -0.000000 0.000000 0.000004 -40.643116 30.655894 9.374259 55.677759 -9.355251 8.937686 -19.409349 -22.964442 1.518701 0.805966 0.016120 -1.527985 -0.000000 0.000001 -0.000000 -34.245062 -11.165876 -16.003464 63.444118 5.739842 -9.546046 -34.953483 -1.074369 5.967012 -3.789909 0.000000 -0.000000 0.000000 -0.000000 -0.000000 
-13.260339 74.846527 -4.351634 5.834298 5.294041 9.908899 19.447893 0.543286 -3.792044 2.720488 0.543959 -1.863241 2.709975 0.589734 -1.912384 6.616877 -0.783485 -3.693530 -18.383690 -0.533058 -12.025295 -0.000000 0.000000 -0.000000 -4.315317 -13.692672 -17.623054 -2.424821 21.811229 -16.022958 -13.759240 -125.584789 -8.474497 -6.202995 8.023842 8.143848 5.140895 9.584624 -9.185629 -5.428760 50.346291 27.353277 -9.274588 54.515698 26.556892 -0.000000 -0.000002 -0.000002 18.901722 15.835211 -67.810487 5.142146 5.808106 -83.028995 1.270341 3.644209 -38.425685 -0.000000 0.000001 -0.000000 14.631899 12.436838 -66.974492 5.691109 5.848873 -88.430746 1.356696 3.750252 -39.764661 -0.000000 0.000003 0.000005 2.516892 7.183943 -62.645307 5.101799 5.803044 -82.630112 1.082323 3.394233 -35.363400 -0.000000 0.000000 0.000006 -12.646095 -1.060898 -62.136396 5.034040 5.793915 -81.959094 1.477991 3.891088 -41.585057 0.000002 0.000000 -0.000002 4.670969 24.780743 -8.705723 20.909226 16.818612 5.117854 0.000102 91.732637 -0.000153 26.037147 26.353749 -31.459978 -7.186080 -5.156244 11.705699 -8.237715 -59.238668 -32.071109 -15.659722 -50.491200 -31.257691 0.000001 -0.000003 -0.000001 -12.051679 1.174332 63.026759 4.168234 -4.631490 83.967211 1.600625 -3.515457 48.949756 -0.000001 0.000000 0.000001 1.912535 -6.088125 63.399155 3.754724 -4.569082 78.814782 0.655501 -2.384355 30.739943 -0.000001 0.000000 -0.000001 10.980700 -10.118709 66.333336 4.271263 -4.641180 85.241512 1.076022 -2.979276 39.708876 -0.000001 -0.000000 -0.000003 11.259355 -10.550072 64.615140 3.628428 -4.542369 77.224899 1.794649 -3.675120 52.043067 0.000002 -0.000001 0.000004 -39.012125 34.798284 6.807074 54.991458 -9.777559 6.083223 -20.406343 -21.767560 2.911089 0.834252 0.015260 -1.458248 0.000000 0.000000 -0.000000 -40.731529 -2.018522 -18.801426 68.804949 5.259541 -9.624278 -35.557282 -1.456587 7.677761 -3.815016 -0.000001 -0.000001 -0.000000 0.000000 -0.000000 
-13.278131 72.175095 -4.696605 7.013748 2.423747 14.508063 20.529469 2.185302 -7.305404 3.061366 1.308543 -2.530206 3.039520 1.346526 -2.621617 6.612608 -0.954544 -3.763959 -20.254450 -0.880643 -13.722698 -0.000000 0.000000 0.000001 -3.994783 -9.930405 -19.021256 -3.191793 21.890073 -16.595869 -19.294487 -124.909571 -13.595445 -5.918281 6.835414 5.973699 5.100875 9.563557 -9.182756 -5.421280 50.320107 27.339425 -9.247936 54.452505 26.539006 -0.000000 -0.000000 0.000001 18.887172 15.829500 -67.645941 5.142313 5.808128 -83.030423 1.270391 3.644283 -38.426600 -0.000001 0.000003 -0.000004 14.615418 12.462574 -66.828955 5.691049 5.848875 -88.430193 1.356759 3.750326 -39.765713 0.000000 0.000001 0.000005 2.507269 7.176813 -62.507111 5.101929 5.803071 -82.631267 1.082383 3.394290 -35.364527 -0.000000 0.000001 0.000007 -12.634726 -1.096351 -62.023233 5.030262 5.793402 -81.921890 1.477982 3.891073 -41.584722 -0.000002 0.000003 0.000002 7.528575 27.630284 -13.898262 13.809265 15.819688 7.241010 -0.000073 97.158396 0.000099 26.075670 24.854198 -26.927302 -7.289927 -5.166378 11.676809 -8.246260 -59.246488 -32.086146 -15.662131 -50.506817 -31.284360 0.000001 -0.000001 -0.000000 -12.070664 1.213059 62.942311 4.168415 -4.631512 83.969260 1.600697 -3.515511 48.950750 -0.000003 -0.000002 0.000003 1.908105 -6.084543 63.310273 3.756611 -4.569461 78.838394 0.655574 -2.384476 30.741657 -0.000001 0.000001 -0.000004 11.007835 -10.142957 66.261837 4.277150 -4.641668 85.314281 1.076083 -2.979354 39.710037 -0.000000 -0.000001 -0.000003 11.290048 -10.576107 64.554126 3.635579 -4.543976 77.315071 1.794781 -3.675221 52.045140 0.000001 -0.000004 0.000005 -37.649314 37.087425 4.573941 56.838918 -10.148257 3.264244 -22.296078 -20.241455 4.206879 0.806783 0.016474 -1.470548 -0.000000 -0.000000 -0.000000 -45.885651 6.596679 -21.498973 75.708009 5.513831 -9.092839 -37.222793 -1.722474 8.842160 -3.789364 0.000003 0.000002 -0.000000 -0.000000 0.000000 
-13.403209 69.251801 -5.252726 6.295930 1.008157 17.472843 23.372974 2.949591 -9.321365 3.454710 1.743258 -2.864686 3.428365 1.775497 -2.986860 6.488420 -1.083969 -3.490909 -22.281769 -1.546032 -14.676697 0.000001 -0.000001 0.000002 -3.545428 -7.825178 -18.437790 -2.550956 21.222830 -17.918301 -25.814500 -123.676503 -19.187349 -5.797162 4.081348 4.394912 5.058782 9.542352 -9.180271 -5.413805 50.294006 27.325601 -9.217365 54.385719 26.514105 -0.000000 0.000003 0.000001 18.872518 15.823904 -67.480760 5.142373 5.808133 -83.031038 1.270472 3.644375 -38.427700 0.000000 0.000001 -0.000004 14.598599 12.488286 -66.682775 5.690957 5.848870 -88.429079 1.356803 3.750372 -39.766400 0.000000 0.000000 0.000003 2.497611 7.169627 -62.368329 5.101989 5.803080 -82.631854 1.082418 3.394333 -35.364981 0.000001 0.000001 0.000006 -12.623066 -1.131874 -61.909456 5.026457 5.792871 -81.884112 1.477921 3.891008 -41.583810 -0.000002 0.000001 0.000003 10.091450 28.857474 -17.918629 6.749269 14.467879 9.101905 -0.000098 101.425174 0.000112 27.350360 22.196037 -22.495663 -7.392585 -5.172856 11.653968 -8.254513 -59.253715 -32.100742 -15.659722 -50.511489 -31.304611 -0.000001 0.000001 0.000003 -12.089378 1.252546 62.855492 4.168379 -4.631513 83.968829 1.600584 -3.515426 48.948984 0.000002 -0.000003 -0.000001 1.903580 -6.080873 63.218899 3.758321 -4.569793 78.859957 0.655545 -2.384422 30.740916 0.000002 0.000002 -0.000009 11.034939 -10.167729 66.187812 4.282921 -4.642134 85.385581 1.076060 -2.979327 39.709589 -0.000000 0.000000 -0.000005 11.320383 -10.602544 64.490503 3.642481 -4.545520 77.402190 1.794837 -3.675253 52.045891 0.000000 -0.000000 0.000002 -37.138959 37.709905 3.141055 60.827015 -10.513737 2.147830 -24.522264 -18.530561 5.159539 0.790757 0.017352 -1.492056 0.000000 0.000000 -0.000000 -48.252869 12.086724 -23.663723 82.203191 6.084539 -8.434231 -39.688354 -1.859499 9.427488 -3.733509 0.000003 0.000003 0.000000 0.000000 0.000000 
